<svg version="1.1" id="Layer_1" xmlns="http://www.w3.org/2000/svg" xmlns:xlink="http://www.w3.org/1999/xlink" x="0px" y="0px"
	 width="32px" height="32px" viewBox="0 0 512 512" enable-background="new 0 0 512 512" xml:space="preserve">
<path fill="#000000" opacity="1.000000" stroke="none" 
	d="
M1.000000,184.000000 
	C1.000000,124.000000 1.037521,64.499916 0.903056,5.000219 
	C0.895316,1.575319 1.576367,0.903139 5.000061,0.905342 
	C172.999985,1.013444 341.000000,1.013444 508.999939,0.905342 
	C512.423645,0.903139 513.096802,1.576367 513.094604,5.000061 
	C512.986511,172.999985 512.986511,341.000000 513.094604,508.999939 
	C513.096802,512.423645 512.423645,513.096802 508.999939,513.094604 
	C341.000000,512.986511 172.999985,512.986511 5.000061,513.094604 
	C1.576367,513.096802 0.900937,512.423950 0.904615,508.999908 
	C1.020815,400.833374 1.000000,292.666656 1.000000,184.000000 
z"/>
<path fill="#454B54" opacity="1.000000" stroke="none" 
	d="
M289.000000,285.000000 
	C332.326080,285.000031 375.152161,284.991943 417.978241,285.004089 
	C435.012268,285.008911 448.978546,298.968597 448.996765,315.983337 
	C449.011780,329.980957 448.441467,344.006805 449.146118,357.968842 
	C449.965179,374.197845 433.426178,389.204773 418.124115,389.108795 
	C370.634033,388.810913 323.140869,388.998810 275.648926,389.001312 
	C269.007355,389.001678 269.003937,389.009888 269.000885,395.854950 
	C268.997345,403.853607 269.229767,411.861450 268.908936,419.847198 
	C268.735748,424.157654 270.343079,425.085449 274.355469,425.076935 
	C328.512726,424.961731 382.670288,424.997650 436.827789,425.003967 
	C442.509155,425.004608 447.117950,427.884094 448.646606,432.325409 
	C450.406433,437.438354 448.730164,443.327667 444.682373,446.822113 
	C442.493835,448.711517 440.000122,449.029297 437.259735,449.023621 
	C416.096741,448.979767 394.933655,449.000000 373.770569,449.000000 
	C274.953979,448.999939 176.137375,449.000916 77.320786,448.996704 
	C71.496368,448.996460 67.072502,446.298615 65.430542,441.801605 
	C63.534710,436.609283 65.337761,430.412354 69.578087,426.940887 
	C71.989830,424.966492 74.741837,424.986847 77.591461,424.987732 
	C131.249023,425.004578 184.906601,425.001373 238.564178,424.998260 
	C244.988861,424.997894 244.994125,424.986969 244.998627,418.431824 
	C245.004120,410.433167 244.734070,402.422272 245.102539,394.440643 
	C245.312042,389.902557 243.725922,388.898315 239.431274,388.911072 
	C191.773102,389.052643 144.114182,388.935974 96.455925,389.062225 
	C88.394058,389.083588 81.524025,386.723206 75.625465,381.309143 
	C68.866943,375.105774 64.809532,367.776550 64.947678,358.268829 
	C65.151016,344.274170 65.665825,330.233948 64.819885,316.287628 
	C63.905109,301.206543 79.471001,284.685760 96.534523,284.811401 
	C160.520020,285.282379 224.511047,285.000000 289.000000,285.000000 
z"/>
<path fill="#454B54" opacity="1.000000" stroke="none" 
	d="
M228.000000,45.000160 
	C291.470428,45.000168 354.440826,44.997242 417.411255,45.002052 
	C435.188385,45.003410 448.986908,58.724941 448.998138,76.401237 
	C449.006927,90.228065 448.416840,104.085976 449.151428,117.873680 
	C450.019409,134.164993 433.338470,149.170914 417.733856,149.133865 
	C310.284912,148.878784 202.834747,148.861374 95.386047,149.155762 
	C80.054543,149.197754 64.291901,133.538528 64.876274,118.708710 
	C65.446503,104.237991 64.992683,89.727203 65.002197,75.234024 
	C65.012825,59.057468 78.898903,45.028358 95.062057,45.013935 
	C139.207993,44.974545 183.354019,45.000244 228.000000,45.000160 
z"/>
<path fill="#454B54" opacity="1.000000" stroke="none" 
	d="
M215.000000,269.000000 
	C174.685364,268.999969 134.870728,269.007111 95.056091,268.996429 
	C78.934242,268.992096 65.016899,255.037613 65.002846,238.883789 
	C64.990532,224.723785 65.682701,210.521790 64.815331,196.415100 
	C63.878101,181.172104 79.490364,164.770432 96.391716,164.824860 
	C203.506958,165.169846 310.623871,164.997238 417.740234,165.003067 
	C435.116302,165.003998 448.983398,178.869034 448.997711,196.230484 
	C449.008728,209.557556 448.169281,222.949417 449.202179,236.195953 
	C450.615265,254.318787 432.929321,269.358124 416.403809,269.224640 
	C349.439636,268.683685 282.468536,268.999969 215.000000,269.000000 
z"/>
<path fill="#FFFFFF" opacity="1.000000" stroke="none" 
	d="
M425.000854,350.906067 
	C424.994965,353.222351 425.091583,355.061707 424.963409,356.885254 
	C424.622528,361.735229 421.959717,364.460602 417.104736,364.939972 
	C415.619110,365.086639 414.109192,364.999146 412.610413,364.999146 
	C308.841217,365.001007 205.072037,365.001160 101.302841,365.000275 
	C91.017776,365.000183 89.001694,363.007782 88.999634,352.851868 
	C88.997406,341.858673 88.991409,330.865448 89.001717,319.872253 
	C89.009590,311.464630 91.505318,309.004395 100.096962,309.003204 
	C156.895187,308.995392 213.693420,308.999176 270.491638,308.999176 
	C318.128845,308.999176 365.766083,308.996704 413.403290,309.001312 
	C422.581055,309.002197 424.988617,311.381134 424.998352,320.440521 
	C425.009125,330.434326 425.000824,340.428131 425.000854,350.906067 
z"/>
<path fill="#FFFFFF" opacity="1.000000" stroke="none" 
	d="
M410.889648,68.999146 
	C413.037445,69.002884 414.707336,68.930626 416.367859,69.024315 
	C421.793945,69.330490 424.855469,72.055916 424.926300,77.410774 
	C425.100311,90.566956 425.088318,103.728256 424.928345,116.884804 
	C424.869385,121.735512 421.960846,124.460068 417.105804,124.939819 
	C415.620209,125.086624 414.110260,124.999161 412.611481,124.999184 
	C308.841797,125.001022 205.072113,125.001205 101.302422,125.000290 
	C91.017693,125.000198 89.001732,123.007683 88.999664,112.851288 
	C88.997429,101.858032 88.991425,90.864769 89.001747,79.871521 
	C89.009636,71.464470 91.505501,69.004379 100.097832,69.003227 
	C158.062286,68.995461 216.026733,68.999161 273.991180,68.999153 
	C319.463287,68.999153 364.935364,68.999153 410.889648,68.999146 
z"/>
<path fill="#FFFFFF" opacity="1.000000" stroke="none" 
	d="
M164.000000,188.999130 
	C247.332565,188.999130 330.165131,188.998291 412.997681,189.000244 
	C422.783905,189.000473 424.996368,191.224518 424.999908,201.046768 
	C425.003937,212.379990 425.034851,223.713364 424.988190,235.046402 
	C424.958801,242.188461 422.174927,244.984787 414.940430,244.986221 
	C309.608093,245.007172 204.275726,245.007263 98.943382,244.986023 
	C91.723846,244.984558 89.033707,242.224258 89.010017,234.979553 
	C88.970764,222.979782 88.975548,210.979752 89.008324,198.979950 
	C89.027878,191.821777 91.782349,189.029633 99.000595,189.014999 
	C120.500320,188.971375 142.000183,188.999222 164.000000,188.999130 
z"/>
<path fill="#7CA5C6" opacity="1.000000" stroke="none" 
	d="
M383.997253,349.000000 
	C349.214966,348.999969 314.932098,349.001923 280.649200,348.994568 
	C278.820038,348.994171 276.965576,349.094238 275.166351,348.839996 
	C269.251648,348.004181 265.051422,343.050781 265.020691,337.066315 
	C264.989929,331.079987 269.143280,326.109924 275.034302,325.169495 
	C276.175934,324.987274 277.356873,325.007874 278.519684,325.007660 
	C317.462372,325.000000 356.405090,325.001038 395.347778,325.001923 
	C396.013397,325.001953 396.680786,324.985809 397.344330,325.026794 
	C404.143982,325.446533 408.945557,330.365326 408.979340,336.933624 
	C409.013123,343.503143 404.239716,348.608063 397.475464,348.935089 
	C393.158234,349.143829 388.823517,348.990814 383.997253,349.000000 
z"/>
<path fill="#7FA7C7" opacity="1.000000" stroke="none" 
	d="
M128.869263,338.610291 
	C126.457970,346.075928 122.054695,349.466156 115.929222,348.935272 
	C110.505600,348.465240 106.083641,344.326050 105.159271,338.854095 
	C104.033081,332.187439 108.783958,326.206421 115.901344,325.330627 
	C123.108582,324.443756 128.555511,329.834686 128.869263,338.610291 
z"/>
<path fill="#7FA7C7" opacity="1.000000" stroke="none" 
	d="
M165.494873,345.480530 
	C157.982712,350.854431 149.982529,349.581818 146.498230,342.758575 
	C143.760361,337.397034 144.971146,331.102264 149.344910,327.959045 
	C154.338882,324.370178 161.242462,324.625458 165.420502,328.553497 
	C169.925522,332.788971 170.057571,339.034332 165.494873,345.480530 
z"/>
<path fill="#7FA7C7" opacity="1.000000" stroke="none" 
	d="
M208.494049,340.172180 
	C205.274292,347.877533 198.532333,350.902405 191.998505,347.880737 
	C185.781937,345.005768 183.231079,337.591461 186.365768,331.508636 
	C188.702881,326.973480 194.901642,324.359589 199.933533,325.787415 
	C206.582657,327.674133 209.399963,332.211090 208.494049,340.172180 
z"/>
<path fill="#7CA5C6" opacity="1.000000" stroke="none" 
	d="
M402.370148,107.762566 
	C399.987030,108.856659 397.849030,109.008606 395.661774,109.007858 
	C356.528351,108.994476 317.394867,109.023735 278.261505,108.978836 
	C269.160950,108.968391 263.387421,102.257385 265.304901,94.185822 
	C266.657074,88.493858 271.264038,85.049774 277.936798,85.022034 
	C292.923798,84.959740 307.911255,85.000214 322.898529,85.000259 
	C347.211212,85.000328 371.524048,84.953018 395.836517,85.025574 
	C405.894073,85.055588 411.858215,93.758598 407.817139,102.254723 
	C406.708008,104.586594 404.972046,106.331070 402.370148,107.762566 
z"/>
<path fill="#7FA7C7" opacity="1.000000" stroke="none" 
	d="
M200.934906,108.290100 
	C198.288223,109.172112 196.000153,109.186768 193.716965,108.519295 
	C188.199905,106.906418 184.664597,101.823135 185.055328,96.102066 
	C185.428467,90.638878 189.265915,86.618965 195.197647,85.477486 
	C200.278778,84.499702 205.969513,87.689804 208.016251,92.663307 
	C210.151596,97.852081 208.571915,103.372543 203.926651,106.747673 
	C203.133087,107.324249 202.186401,107.690063 200.934906,108.290100 
z"/>
<path fill="#7FA7C7" opacity="1.000000" stroke="none" 
	d="
M163.549500,87.294495 
	C169.495529,92.307388 170.590820,98.822372 166.689529,104.185783 
	C162.975174,109.292198 155.580017,110.499886 150.224243,106.874710 
	C145.082077,103.394135 143.505692,96.437218 146.630615,91.015358 
	C149.711960,85.669113 156.192474,84.143387 163.549500,87.294495 
z"/>
<path fill="#7FA7C7" opacity="1.000000" stroke="none" 
	d="
M108.570221,88.533058 
	C116.237015,84.060364 122.832504,84.711311 126.601387,90.033211 
	C130.090179,94.959602 129.612473,101.516701 125.474602,105.499710 
	C121.171738,109.641556 114.802086,110.136688 109.975204,106.704544 
	C105.217102,103.321320 103.663620,97.030525 106.327271,91.636925 
	C106.832939,90.612991 107.627655,89.731804 108.570221,88.533058 
z"/>
<path fill="#7CA5C6" opacity="1.000000" stroke="none" 
	d="
M353.000000,205.000076 
	C367.831482,205.002533 382.164581,204.875473 396.493927,205.051575 
	C406.560852,205.175293 412.260284,215.034332 407.224579,223.300476 
	C404.501038,227.771179 400.239410,229.041702 395.240265,229.027618 
	C372.243378,228.962830 349.246216,228.999695 326.249146,228.999908 
	C311.251068,229.000061 296.252991,229.001373 281.254913,228.999374 
	C270.509644,228.997940 265.104797,225.040817 265.024139,217.122894 
	C264.943146,209.173737 270.438995,205.001999 281.009094,205.000916 
	C304.839386,204.998474 328.669708,205.000107 353.000000,205.000076 
z"/>
<path fill="#7FA7C7" opacity="1.000000" stroke="none" 
	d="
M128.729309,219.403519 
	C125.650208,227.593597 119.001427,230.920364 112.265572,227.985687 
	C105.969429,225.242569 103.243576,217.894989 106.242050,211.749237 
	C108.537804,207.043793 114.309906,204.425888 119.669685,205.659241 
	C125.948639,207.104080 129.002472,211.560226 128.729309,219.403519 
z"/>
<path fill="#7FA7C7" opacity="1.000000" stroke="none" 
	d="
M162.382706,227.687683 
	C155.402390,229.987167 149.674881,228.274704 146.786087,223.308655 
	C143.929123,218.397308 144.643585,212.146683 148.464111,208.628662 
	C152.745193,204.686493 159.323715,204.241119 164.074844,207.571793 
	C171.124130,212.513535 170.493637,221.875671 162.382706,227.687683 
z"/>
<path fill="#7FA7C7" opacity="1.000000" stroke="none" 
	d="
M186.657043,223.061127 
	C183.565552,214.727997 185.945404,208.528046 192.881775,206.037842 
	C199.446213,203.681152 206.232590,207.024536 208.385880,213.676086 
	C210.077591,218.901840 207.855759,224.553528 203.009949,227.350876 
	C197.444031,230.563889 191.720886,229.166916 186.657043,223.061127 
z"/>
</svg>