<svg width="24" height="24" viewBox="0 0 24 24" fill="none" xmlns="http://www.w3.org/2000/svg">

  <path fill-rule="evenodd" clip-rule="evenodd" d="M20.4647 0C20.4647 4.68904 16.668 8.49015 11.9845 8.49015C9.659 8.49015 7.55192 7.55265 6.0198 6.0346C7.54064 7.56912 8.48016 9.68197 8.48016 12.0146C8.48016 14.3588 7.53085 16.4813 5.99618 18.0178L0 12.0146V3.5244C2.33771 3.5244 4.45447 4.4714 5.98843 6.00312L11.9845 0H20.4647ZM18.0112 17.9968C19.5452 19.5287 21.6621 20.4758 23.9999 20.4758V11.9857L18.0037 5.98242C16.4691 7.5189 15.5198 9.64144 15.5198 11.9857C15.5198 14.3177 16.4588 16.4301 17.979 17.9645C16.447 16.4469 14.3402 15.5097 12.0151 15.5097C7.33161 15.5097 3.53497 19.3109 3.53497 23.9999H12.0151L18.0112 17.9968Z" fill="#55E794"/>
</svg>
